:FULLY-SPECIFIED
:FORCE-ALL-JOINTS-BE-3DOF
:DEGREES
204
root 4.81368 14.9991 -25.4233 7.11714 -3.0055 6.01503
lfemur 9.46802 -2.2664 0.458835
ltibia 3.81457 -0 0
lfoot -37.3319 -12.548 0.151418
ltoes 48.8879 -0 0
rfemur -31.917 -20.2768 -9.05781
rtibia 50.765 -0 0
rfoot -27.5072 20.3867 0.33575
rtoes 61.4937 -0 0
lowerback -3.66236 -1.60737 -0.364995
upperback -0.594591 -2.03264 -7.96731
thorax 1.15781 -1.0202 -8.23582
lowerneck -11.8026 0.89191 7.04074
upperneck 3.78782 -0.0413267 2.39512
head 3.30898 0.204547 -0.461126
lclavicle -2.94169e-14 -3.92226e-14 2.07845e-31
lhumerus -59.0922 -46.8271 115.493
lradius 54.2084 -0 0
lwrist 27.8382 0 0
lhand 40.3323 31.4736 -0.0187554
lfingers 7.12502 -0 0
lthumb 62.6763 42.147 -0.00671124
rclavicle -2.94169e-14 -3.92226e-14 2.07845e-31
rhumerus -3.19893 -12.5749 -5.96948
rradius 55.8064 -0 0
rwrist -27.635 0 0
rhand -15.9698 -49.3756 2.27265
rfingers 7.12502 -0 0
rthumb 17.9423 -42.9612 -8.50691
205
root 4.81532 15.0053 -25.4409 7.16803 -2.55625 5.89493
lfemur 8.93388 -2.14981 0.573862
ltibia 4.22684 -0 0
lfoot -37.0364 -12.166 0.103145
ltoes 48.2448 -0 0
rfemur -32.0101 -20.3709 -8.83708
rtibia 51.0298 -0 0
rfoot -27.1889 19.8503 0.220558
rtoes 61.1227 -0 0
lowerback -3.32527 -1.47905 -0.410765
upperback -0.658453 -1.87912 -7.88352
thorax 0.928153 -0.948112 -8.09856
lowerneck -11.6162 0.678488 7.06837
upperneck 3.84582 -0.312051 2.36219
head 3.29455 0.0699249 -0.492214
lclavicle -1.63791e-14 -2.71238e-14 -1.97841e-30
lhumerus -59.2971 -47.0189 115.977
lradius 54.1192 -0 0
lwrist 26.6389 0 0
lhand 40.8085 30.6685 -0.0188279
lfingers 7.12502 -0 0
lthumb 63.0739 40.851 0.00144779
rclavicle -1.63791e-14 -2.71238e-14 -1.97841e-30
rhumerus -3.05952 -20.4794 -8.94918
rradius 54.7839 -0 0
rwrist -25.5635 0 0
rhand -27.0886 -55.7394 2.261
rfingers 7.12502 -0 0
rthumb 2.87386 2.14723 -14.4952
206
root 4.82334 15.0218 -25.4596 7.22035 -1.88598 5.71447
lfemur 8.08109 -1.9798 0.751615
ltibia 5.00872 -0 0
lfoot -36.4436 -11.8666 0.0335707
ltoes 47.4481 -0 0
rfemur -31.9531 -20.3288 -8.56808
rtibia 51.2096 -0 0
rfoot -26.8007 18.9478 0.0718218
rtoes 60.5787 -0 0
lowerback -2.96174 -1.38522 -0.459981
upperback -0.707283 -1.77189 -7.74703
thorax 0.695681 -0.89876 -7.90291
lowerneck -11.4248 0.435854 7.02602
upperneck 3.86607 -0.610687 2.34734
head 3.26784 -0.0800832 -0.506476
lclavicle -3.67195e-15 -1.49995e-14 -1.7612e-30
lhumerus -59.4316 -47.0952 116.412
lradius 54.0648 -0 0
lwrist 25.4927 0 0
lhand 41.0325 29.8876 -0.0102091
lfingers 7.12502 -0 0
lthumb 63.2574 39.8181 0.00899345
rclavicle -3.67195e-15 -1.49995e-14 -1.7612e-30
rhumerus -2.902 -26.9747 -12.5895
rradius 54.8318 -0 0
rwrist -23.3923 0 0
rhand -37.2302 -60.9854 1.26708
rfingers 7.12502 -0 0
rthumb -12.1016 52.4017 -8.85269
207
root 4.81688 15.0289 -25.4771 7.29181 -1.48238 5.54624
lfemur 7.42444 -2.06268 0.955612
ltibia 5.63723 0 0
lfoot -36.0728 -11.5447 0
ltoes 47.123 0 0
rfemur -32.0244 -20.3989 -8.27833
rtibia 51.3881 0 0
rfoot -26.6556 18.5203 0
rtoes 60.315 0 0
lowerback -2.65354 -1.35364 -0.505119
upperback -0.734526 -1.74455 -7.60297
thorax 0.506301 -0.888343 -7.70642
lowerneck -11.2699 0.356179 6.98882
upperneck 3.84121 -0.69289 2.30181
head 3.23254 -0.125298 -0.519254
lclavicle 3.8763e-15 -6.36111e-15 0
lhumerus -59.5572 -47.0428 116.716
lradius 54.1203 0 0
lwrist 24.8729 0 0
lhand 40.8051 29.327 0
lfingers 7.12502 0 0
lthumb 63.0592 39.4365 0
rclavicle 3.8763e-15 -6.36111e-15 0
rhumerus -2.88701 -31.384 -14.9553
rradius 55.764 0 0
rwrist -22.019 0 0
rhand -44.3783 -64.1768 0
rfingers 7.12502 0 0
rthumb -17.1853 -626.563 0
208
root 4.79339 15.0238 -25.4896 7.36372 -1.39207 5.48708
lfemur 7.25272 -2.89139 1.05143
ltibia 5.73423 -0 0
lfoot -36.0854 -11.3675 -0.0234494
ltoes 48.3392 -0 0
rfemur -32.2557 -20.5798 -8.07403
rtibia 51.6609 -0 0
rfoot -26.7609 18.6148 -0.00113376
rtoes 60.3343 -0 0
lowerback -2.43304 -1.40531 -0.57963
upperback -0.748974 -1.82525 -7.5088
thorax 0.364136 -0.930124 -7.55109
lowerneck -11.1125 0.466963 6.98377
upperneck 3.75886 -0.522409 2.23619
head 3.1781 -0.0476522 -0.529555
lclavicle 5.5771e-15 -1.36128e-15 1.18787e-30
lhumerus -59.7273 -46.8155 116.832
lradius 54.2946 -0 0
lwrist 25.0093 0 0
lhand 40.1342 29.1802 -0.0257473
lfingers 7.12502 -0 0
lthumb 62.5017 39.9961 -0.0316401
rclavicle 5.5771e-15 -1.36128e-15 1.18787e-30
rhumerus -3.6862 -33.8954 -15.2562
rradius 57.7688 -0 0
rwrist -21.907 0 0
rhand -49.7223 -65.3806 -1.6177
rfingers 7.12502 -0 0
rthumb -15.3434 128.746 1.59506
209
root 4.76678 15.0195 -25.4986 7.42371 -1.29002 5.48869
lfemur 7.22322 -4.26141 1.0622
ltibia 5.64836 -0 0
lfoot -36.1352 -11.4054 -0.0749382
ltoes 50.6801 -0 0
rfemur -32.4606 -20.7066 -7.93726
rtibia 51.972 -0 0
rfoot -26.9072 18.6704 -0.00364253
rtoes 60.3342 -0 0
lowerback -2.24552 -1.52155 -0.68911
upperback -0.75522 -1.99163 -7.43432
thorax 0.238361 -1.01326 -7.39829
lowerneck -10.9248 0.640326 6.96121
upperneck 3.62371 -0.262224 2.18274
head 3.10205 0.0727491 -0.527242
lclavicle 4.64917e-15 2.34089e-15 1.47946e-30
lhumerus -59.8988 -46.4231 116.813
lradius 54.5374 -0 0
lwrist 25.5868 0 0
lhand 39.1525 29.3173 -0.0829429
lfingers 7.12502 -0 0
lthumb 61.6962 41.2385 -0.0664657
rclavicle 4.64917e-15 2.34089e-15 1.47946e-30
rhumerus -5.37006 -34.9586 -14.6845
rradius 60.9704 -0 0
rwrist -22.4581 0 0
rhand -54.6397 -65.1582 -3.49003
rfingers 7.12502 -0 0
rthumb -13.4521 166.109 -3.81553
